# xmcd
#
# Track frame offsets: 
#        150
#        27777
#        45450
#        65542
#        81680
#        100837
#        118122
#        135427
#        155102
#        176992
#        191075
#
# Disc length: 2743 seconds
#
# Revision: 5
# Processed by: cddbd v1.5.2PL0 Copyright (c) Steve Scherf et al.
# Submitted via: ExactAudioCopyFreeDBPlugin 1.0
#
DISCID=9c0ab50b
DTITLE=Wynonna Judd - Collection
DYEAR=1997
DGENRE=Country
TTITLE0=Heaven Help My Heart
TTITLE1=I Saw the Light
TTITLE2=She Is His Only Need
TTITLE3=Only Love
TTITLE4=No One Else on Earth (Club Mix)
TTITLE5=Is It Over Yet [single version]
TTITLE6=Tell Me Why
TTITLE7=My Strongest Weakness
TTITLE8=To Be Loved by You
TTITLE9=Rock Bottom [single version]
TTITLE10=Girls with Guitars
EXTD=YEAR: 1997
EXTT0=
EXTT1=
EXTT2=
EXTT3=
EXTT4=
EXTT5=
EXTT6=
EXTT7=
EXTT8=
EXTT9=
EXTT10=
PLAYORDER=
